<svg width="357" height="200" viewBox="0 0 357 200" fill="none" xmlns="http://www.w3.org/2000/svg">
<path fill-rule="evenodd" clip-rule="evenodd" d="M100 200C155.228 200 200 155.228 200 100C200 44.7715 155.228 0 100 0C44.7715 0 0 44.7715 0 100C0 155.228 44.7715 200 100 200ZM57.8744 145L70.6904 116.632H129.154L142.114 145H150.034L103.666 44.2H96.3224L49.9544 145H57.8744ZM99.9224 52.264L126.418 110.44H73.5704L99.9224 52.264Z" fill="black"/>
<circle cx="257" cy="100" r="97.5" stroke="black" stroke-width="5"/>
<path d="M298.032 123.504C298.032 128.496 296.784 133.008 294.288 137.04C291.792 140.976 288.48 144.144 284.352 146.544C280.224 148.848 275.616 150 270.528 150H222.72V47.76H270.384C275.184 47.76 279.312 49.056 282.768 51.648C286.32 54.144 289.008 57.408 290.832 61.44C292.752 65.376 293.712 69.504 293.712 73.824C293.712 78.912 292.416 83.664 289.824 88.08C287.232 92.4 283.632 95.568 279.024 97.584C284.88 99.312 289.488 102.576 292.848 107.376C296.304 112.08 298.032 117.456 298.032 123.504ZM230.064 54.384V95.28H267.504C271.248 95.28 274.512 94.32 277.296 92.4C280.176 90.384 282.432 87.84 284.064 84.768C285.696 81.6 286.512 78.288 286.512 74.832C286.512 71.184 285.744 67.824 284.208 64.752C282.672 61.584 280.512 59.088 277.728 57.264C275.04 55.344 271.92 54.384 268.368 54.384H230.064ZM290.688 122.496C290.688 118.848 289.824 115.44 288.096 112.272C286.464 109.104 284.208 106.512 281.328 104.496C278.448 102.48 275.184 101.472 271.536 101.472H230.064V143.376H270.528C274.272 143.376 277.68 142.416 280.752 140.496C283.824 138.48 286.224 135.888 287.952 132.72C289.776 129.456 290.688 126.048 290.688 122.496Z" fill="black"/>
</svg>
